<?xml version="1.0" encoding="UTF-8" standalone="no"?>
<!-- Created with Inkscape (http://www.inkscape.org/) -->

<svg
   width="500mm"
   height="500mm"
   viewBox="0 0 500 500"
   version="1.1"
   id="svg1"
   xml:space="preserve"
   inkscape:version="1.3.2 (091e20e, 2023-11-25, custom)"
   sodipodi:docname="icon.svg"
   xmlns:inkscape="http://www.inkscape.org/namespaces/inkscape"
   xmlns:sodipodi="http://sodipodi.sourceforge.net/DTD/sodipodi-0.dtd"
   xmlns="http://www.w3.org/2000/svg"
   xmlns:svg="http://www.w3.org/2000/svg"><sodipodi:namedview
     id="namedview1"
     pagecolor="#505050"
     bordercolor="#ffffff"
     borderopacity="1"
     inkscape:showpageshadow="0"
     inkscape:pageopacity="0"
     inkscape:pagecheckerboard="1"
     inkscape:deskcolor="#505050"
     inkscape:document-units="mm"
     inkscape:zoom="0.13062132"
     inkscape:cx="983.75979"
     inkscape:cy="2032.5932"
     inkscape:window-width="2560"
     inkscape:window-height="1369"
     inkscape:window-x="-8"
     inkscape:window-y="-8"
     inkscape:window-maximized="1"
     inkscape:current-layer="layer1" /><defs
     id="defs1" /><g
     inkscape:label="Layer 1"
     inkscape:groupmode="layer"
     id="layer1"><path
       d="m 262.52159,5.5106588 c 35.27953,1.0328564 70.13899,9.1875432 100.7847,24.6117832 8.13047,4.092179 15.94107,8.572565 23.43096,13.4241 C 349.48421,19.041153 307.70752,6.3104025 262.52159,5.5106588 Z M 179.58591,16.680469 c -6.6152,1.960462 -13.20687,4.321597 -19.75143,7.05491 6.4586,-2.650798 13.05819,-4.984122 19.75143,-7.05491 z m -20.67578,7.448551 c -2.46587,1.044387 -4.92382,2.109323 -7.37099,3.256074 2.44117,-1.118243 4.8884,-2.224271 7.37099,-3.256074 z m -13.50754,6.243853 c -1.34111,0.67972 -2.68027,1.360247 -4.01349,2.069391 1.33426,-0.698187 2.66712,-1.400177 4.01349,-2.069391 z M 75.008345,83.812674 c -0.271199,0.291962 -0.529338,0.595487 -0.799158,0.888606 0.268194,-0.294287 0.529473,-0.595476 0.799158,-0.888606 z m -7.82423,8.867893 C 56.300111,105.57528 46.79424,119.4483 39.18506,133.94263 c -0.519429,0.989 -0.93603,1.9001 -1.437225,2.87444 8.294084,-15.87016 18.176202,-30.65231 29.43628,-44.136503 z m 378.473415,4.329542 c 1.36701,1.727696 2.6702,3.520011 3.99562,5.289711 0.0947,0.0461 0.0981,-0.0346 0.21465,0.0346 0.0682,0.0461 0.1671,0.15925 0.23854,0.20888 -1.3931,-1.84043 -2.81692,-3.646482 -4.25803,-5.432804 -0.075,-0.04608 -0.11075,-0.04608 -0.19086,-0.103742 z m 22.81671,33.914971 c 1.85706,3.53018 3.72837,7.10465 5.56999,10.87749 4.67211,9.28275 8.92376,18.96156 12.70244,29.05468 -5.38428,-14.41553 -11.47174,-27.66754 -18.27243,-39.93217 z M 34.593086,143.12059 c -1.166742,2.3863 -2.287705,4.76035 -3.345566,7.07879 1.072206,-2.38641 2.204005,-4.73624 3.345566,-7.07879 z m -6.673256,14.61077 c -0.479728,1.15056 -0.923682,2.29962 -1.377583,3.44107 0.46161,-1.14478 0.908218,-2.29928 1.377583,-3.44107 z m -3.846516,10.00689 c -0.610595,1.70058 -1.220337,3.41963 -1.777153,5.11685 0.58786,-1.70727 1.152409,-3.42111 1.777153,-5.11685 z m 464.384916,7.81831 c 8.08796,22.26102 9.0444,28.78925 9.06467,64.1802 -0.0207,-35.39108 -0.97665,-41.91928 -9.06467,-64.1802 z m -238.16201,75.26646 c -0.47511,0 -1.72609,0.49853 -3.93597,1.59232 -0.23093,0.11546 -0.67175,0.35775 -0.98993,0.52508 -0.0553,0.0346 -0.12831,0.0692 -0.17298,0.0924 -1.99499,1.01209 -4.58608,2.40003 -8.04488,4.31167 -0.9874,0.54701 -4.29837,2.45012 -5.46266,3.101 -0.005,0.002 -0.0185,0.0105 -0.0242,0.0111 -9.00044,5.04806 -20.51666,11.62889 -39.1629,22.45883 -15.1141,8.77857 -40.53339,23.53325 -56.48715,32.78195 -15.95365,9.2486 -43.359888,25.14979 -60.90019,35.34018 -8.933002,5.18977 -15.410548,9.12027 -20.371634,11.65288 l -0.119216,0.0691 c -0.04154,0.0231 -0.101554,0.0578 -0.1431,0.0808 l -11.593214,6.78659 -2.761143,-5.74901 c -0.489422,-0.4593 -0.960611,-1.20584 -1.437224,-1.83073 2.555531,4.8769 5.192134,9.78763 8.164155,14.91496 3.480274,6.00405 7.435478,11.85369 11.658819,17.59255 1.971986,1.38598 8.529401,7.61979 21.015709,20.14501 3.433024,3.44372 6.854095,6.71423 10.269306,9.87569 1.186449,1.09862 2.36912,2.12015 3.554295,3.18452 2.182563,1.96103 4.367672,3.90015 6.548035,5.74891 1.482462,1.2565 2.960332,2.45634 4.442872,3.66171 1.94075,1.57871 3.88384,3.12938 5.82642,4.62176 1.5394,1.18184 3.08013,2.33055 4.62179,3.45885 1.82984,1.34016 3.66391,2.63441 5.49842,3.90025 1.64967,1.13787 3.30106,2.26744 4.95576,3.34553 1.78798,1.16591 3.58386,2.26592 5.37914,3.3635 1.65643,1.0121 3.30978,2.04495 4.97365,2.99968 1.82226,1.0467 3.65979,2.00326 5.49247,2.98178 1.66432,0.88858 3.31743,1.82656 4.99151,2.65979 2.87224,1.43018 5.76538,2.74819 8.67108,4.01947 0.40148,0.17541 0.7965,0.38198 1.19868,0.55509 0.36132,0.14308 0.54377,0.17888 0.91237,0.32773 9.83393,3.97215 19.90764,7.22341 30.01476,10.03079 0.007,0.002 0.0161,0.004 0.0242,0.005 6.01019,1.57489 12.25008,3.02124 18.37383,4.29377 6.09105,1.26586 12.06731,2.35964 17.58066,3.22632 2.87237,0.3762 5.73616,0.71319 8.57565,0.97746 l 11.22945,1.04901 h 9.38073 v -118.6455 c 0,-0.16962 0,-0.26658 0,-0.43505 0,-32.69841 -0.19687,-62.39769 -0.51285,-83.97336 -7.7e-4,-0.0578 7.8e-4,-0.0691 0,-0.12585 -0.15821,-10.77905 -0.34609,-19.50765 -0.55462,-25.55394 -4.4e-4,-0.0111 4.5e-4,-0.0111 0,-0.0346 -0.10385,-3.02091 -0.21465,-5.36633 -0.32798,-6.95948 v -0.005 c -0.11313,-1.59314 -0.23184,-2.43316 -0.35185,-2.43316 z m -238.75837,4.55622 c 0.0049,0.68201 0.05078,1.32065 0.06001,1.99784 -0.02424,-0.66587 -0.03923,-1.33163 -0.06001,-1.99784 z m 485.90156,1.89051 c -0.26463,30.51094 -1.56977,39.87216 -8.00315,59.96385 6.43339,-20.09169 7.73851,-29.4528 8.00315,-59.96385 z m -485.633202,5.19427 c 0.659639,21.10343 3.501855,39.81399 9.321097,58.31799 -5.077123,-17.4858 -8.228687,-37.7251 -9.321097,-58.31799 z m 56.349981,144.30097 c 0.806433,0.94399 1.625971,1.88049 2.451034,2.81488 -0.995344,-1.12516 -1.574352,-1.81538 -2.451034,-2.81488 z m 8.468295,9.36284 c 0.795931,0.83435 1.581021,1.67334 2.3914,2.4988 -0.808854,-0.82743 -1.600939,-1.66295 -2.3914,-2.4988 z m 48.692726,39.69963 c 5.2134,3.30835 10.51395,6.47962 15.94069,9.4225 -0.0658,-0.0808 -0.23634,-0.1708 -0.29219,-0.24466 -0.0255,-0.0111 -0.052,-0.0231 -0.0773,-0.0461 -3.14868,-1.70172 -6.25934,-3.46797 -9.33898,-5.2897 -0.24465,-0.14425 -0.49531,-0.27812 -0.73949,-0.42354 -1.85578,-1.10555 -3.66407,-2.27815 -5.49248,-3.42317 z m 35.39988,18.91656 c 18.64775,8.21493 38.02081,14.21517 57.33994,17.27658 -4.1636,-0.66011 -8.36216,-1.51386 -12.57125,-2.45705 -1.00042,-0.22503 -1.99769,-0.46854 -2.99968,-0.70972 -3.91022,-0.93476 -7.82599,-1.96658 -11.74826,-3.13088 -0.26914,-0.0808 -0.53606,-0.15118 -0.80506,-0.23312 -4.60808,-1.38574 -9.21439,-2.93237 -13.80572,-4.61587 -4.61795,-1.69317 -9.20925,-3.54077 -13.77589,-5.51624 -0.045,-0.023 -0.0924,-0.0346 -0.13723,-0.0578 -0.53718,-0.19042 -0.97352,-0.3716 -1.49686,-0.56086 z"
       style="fill:#dbf603;stroke-width:0.999999"
       id="path12" /><path
       d="m 256.98141,5.3198984 c -1.141,-0.00957 -2.28179,0.057732 -3.42311,0.069221 L 252.73536,124.03483 c -0.22364,32.40526 -0.23392,61.48416 -0.09,83.22186 0.41764,20.00559 1.05952,32.52931 2.11707,37.0936 4.90463,-1.80593 28.22253,-15.21375 153.00192,-87.69462 15.95379,-9.26718 34.85072,-20.15622 41.99562,-24.20026 7.86421,-4.45121 12.18499,-8.75375 10.94917,-10.90151 -1.12287,-1.95123 -4.83406,-7.57826 -8.24765,-12.49971 -3.21314,-4.63226 -4.33127,-7.44324 -2.80885,-6.75072 -1.32542,-1.76968 -2.6286,-3.561993 -3.99562,-5.289689 -0.89495,-0.642802 -2.01476,-1.605478 -3.54833,-3.089202 -1.83263,-1.487564 -4.91262,-4.641494 -10.08445,-10.269222 l -10.51977,-11.450124 11.4501,10.519748 c 1.56555,1.438733 2.27712,2.219304 3.53045,3.42307 -6.23341,-7.004238 -12.85201,-13.604341 -19.82894,-19.816925 0.31966,0.777816 0.15187,1.294017 -0.88261,1.294017 -0.63355,0 -3.03866,-2.404527 -5.34335,-5.343379 -1.51838,-1.935987 -1.91169,-2.577744 -2.129,-3.053311 C 394.56916,48.077905 379.5847,38.319472 363.30579,30.126109 331.05477,13.89393 294.14465,5.6148418 256.98092,5.3235641 Z M 236.9974,6.0296316 C 206.54076,8.1433309 176.43829,15.546985 149.1358,28.446801 131.24778,36.898542 114.36619,47.974174 98.904466,61.013974 133.56754,32.343828 175.82907,13.46535 221.50997,8.1765726 227.36605,7.498002 231.90873,6.7711956 236.9974,6.0296316 Z M 474.04423,141.80269 c 4.77791,9.78855 9.28654,19.99141 12.73823,29.15011 -3.78771,-10.12784 -8.05127,-19.83782 -12.73823,-29.15011 z M 30.168103,152.48955 c -0.751617,1.69295 -1.482254,3.39041 -2.194598,5.09883 0.705224,-1.71568 1.45368,-3.40427 2.194598,-5.09883 z m -5.021339,12.16573 c -1.810595,4.75989 -3.514134,9.55799 -5.009416,14.4139 1.505635,-4.88949 3.226366,-9.66993 5.009416,-14.4139 z m 463.311466,10.90139 c 8.10133,22.3897 9.04472,28.78866 9.06467,64.18021 -0.0207,-35.39107 -0.97665,-41.91918 -9.06467,-64.18021 z m 8.98118,81.71319 c -0.26463,30.51094 -1.56977,39.87216 -8.00315,59.96387 6.43339,-20.09171 7.73851,-29.45282 8.00315,-59.96387 z m -469.5315,82.58382 c 2.425162,5.51668 4.261297,9.76512 5.945701,13.45972 -1.701646,-3.70486 -3.49004,-7.87356 -5.945701,-13.45972 z m 47.207798,11.18169 c -8.933012,5.18977 -15.410553,9.12025 -20.37164,11.65289 4.9611,-2.53264 11.438617,-6.46312 20.37164,-11.65289 z m -39.74138,5.49847 c 0.711571,1.43664 1.449548,2.89682 2.123038,3.98369 -0.684569,-1.10094 -1.398265,-2.52373 -2.123038,-3.98369 z m 2.123038,3.98369 c 0.864364,1.39487 1.733254,2.51624 2.629943,3.3574 -0.901294,-0.84589 -1.760154,-1.95862 -2.629943,-3.3574 z m 35.793473,52.13368 c 2.850288,3.19527 5.882481,6.31032 8.99309,9.38673 -3.119823,-3.07074 -6.142388,-6.191 -8.99309,-9.38673 z m 6.237915,2.04552 c 3.433392,3.44406 6.853653,6.71469 10.269306,9.87567 -3.4152,-3.16144 -6.836272,-6.43196 -10.269306,-9.87567 z m 4.234153,8.77243 c 3.0825,2.99205 6.262934,5.92823 9.565607,8.79033 -3.301663,-2.8613 -6.475448,-5.8051 -9.565607,-8.79033 z m 9.589459,4.28777 c 2.18151,1.95931 4.368713,3.9019 6.548035,5.74892 -2.180364,-1.84876 -4.365473,-3.78788 -6.548035,-5.74892 z m 5.641554,9.24965 c 2.76299,2.25151 5.58523,4.45419 8.46831,6.6076 -2.88298,-2.1533 -5.70541,-4.35609 -8.46831,-6.6076 z m 5.34934,0.16041 c 1.94033,1.57743 3.88427,3.13075 5.82644,4.62174 -1.94258,-1.49238 -3.88567,-3.04304 -5.82644,-4.62174 z m 10.44821,8.0806 c 1.82911,1.33867 3.66468,2.6359 5.49844,3.90026 -1.83452,-1.26586 -3.66858,-2.5601 -5.49844,-3.90026 z m 10.45419,7.24577 c 1.78769,1.16477 3.58415,2.26686 5.37916,3.36353 -1.79528,-1.09748 -3.59118,-2.19762 -5.37916,-3.36353 z m -4.11488,0.7282 c 3.17593,2.07528 6.40909,4.0812 9.67891,6.02921 -3.27192,-1.94408 -6.50257,-3.9537 -9.67891,-6.02921 z m 14.46767,5.63557 c 1.82252,1.04553 3.65954,2.00373 5.49247,2.98178 -1.83268,-0.97863 -3.67022,-1.93554 -5.49247,-2.98178 z m -4.04928,0.81705 c 3.07964,1.82172 6.1903,3.58797 9.33898,5.28971 -3.14819,-1.70139 -6.25827,-3.47212 -9.33898,-5.28971 z m 14.53327,4.82452 c 2.87149,1.42913 5.76617,2.74864 8.67107,4.01945 -2.9057,-1.27126 -5.79885,-2.58928 -8.67107,-4.01945 z m 16.26868,10.85971 c 4.56665,1.97546 9.15796,3.82306 13.7759,5.51626 -4.61433,-1.69653 -9.21169,-3.54183 -13.7759,-5.51626 z m 13.7759,5.51626 c 4.59136,1.68348 9.19765,3.2301 13.80572,4.61587 -4.60689,-1.39153 -9.21516,-2.92801 -13.80572,-4.61587 z m 14.61082,4.84841 c 3.92227,1.16428 7.83804,2.19564 11.74826,3.13085 -3.90987,-0.93937 -7.82658,-1.96161 -11.74826,-3.13085 z m 14.74794,3.84059 c 4.20909,0.94284 8.40765,1.79715 12.57125,2.45702 -4.16329,-0.66009 -8.36342,-1.51037 -12.57125,-2.45702 z"
       style="fill:#fa0bc7;stroke-width:0.999999"
       id="path11" /><path
       d="m 253.57024,3.3459343 -7.63341,1.4431178 c -4.19833,0.792809 -15.19054,2.31762 -24.42686,3.3874111 C 128.06488,18.995326 48.68488,86.360776 20.137348,179.06906 5.8605756,225.43319 9.3491364,297.63617 27.90791,339.85355 c 5.692865,12.95013 8.614442,20.63952 12.219399,24.02126 L 33.054482,349.15073 C 17.166137,316.0842 12.682851,294.11178 12.682851,249.29635 c 0,-48.28408 4.441971,-67.38723 25.756754,-110.71996 1.9834,-4.03229 4.11769,-7.9577 6.309485,-11.84378 -1.85e-4,-1.1e-4 -0.01731,-0.0112 -0.01846,-0.0112 -0.298547,-0.23774 -0.268429,-0.84015 0.04731,-1.75332 0.316087,-0.91284 0.918951,-2.13679 1.759254,-3.60205 1.680688,-2.93044 4.320591,-6.83923 7.555879,-11.24137 3.235275,-4.40204 7.067287,-9.29753 11.134027,-14.187353 1.071397,-1.288245 2.206646,-2.454397 3.303815,-3.733172 C 108.01697,44.387545 164.99896,13.356384 227.11477,7.937993 l 24.9278,-2.1708249 v 119.0988919 0.37621 c 10e-4,38.08689 0.20924,63.18199 0.60231,82.01129 -0.1445,-21.73769 -0.13421,-50.81659 0.09,-83.22186 z M 407.76486,58.461394 c -0.15763,0.158097 0.76674,1.395327 2.66574,3.816701 2.3047,2.938853 4.70982,5.343379 5.34337,5.343379 2.51301,0 0.89367,-2.505511 -4.19241,-6.494286 -2.42142,-1.899053 -3.65909,-2.823329 -3.8167,-2.665794 z m 34.15946,32.948932 c 1.20002,1.249346 2.48085,2.57289 2.48085,2.761119 0,1.100941 -0.65814,1.079014 -2.29597,-0.250433 3.41718,3.305935 5.34934,4.754011 5.34934,3.327757 0,-0.296581 -2.36541,-2.725242 -5.53422,-5.838338 z m 7.03108,10.764284 c -0.34944,0.56316 0.94641,3.18499 3.50659,6.87591 3.4136,4.92145 7.12478,10.54848 8.24766,12.49971 1.23583,2.14777 -3.08496,6.45033 -10.94917,10.90151 -7.14489,4.04405 -26.04182,14.93309 -41.99562,24.20027 -124.77953,72.48099 -148.09729,85.88867 -153.00193,87.69462 0.33121,1.42915 0.69036,2.41029 1.09727,2.74322 2.09917,1.71708 34.04503,20.55344 70.9906,41.85848 25.71239,14.82715 45.8568,26.54593 65.87383,38.17298 22.44305,12.92968 54.04924,31.21385 58.4611,33.64653 l 1.86659,1.03169 c 11.52909,5.34396 11.89909,0.47316 18.82707,-13.2511 16.10473,-31.90326 22.28581,-65.47075 20.53861,-111.46548 -1.63502,-43.04329 -7.4104,-67.14015 -23.9796,-99.99758 -4.86952,-9.65618 -8.16893,-17.55676 -7.32926,-17.55676 3.1034,0 19.48466,35.90934 27.85594,61.06724 7.173,21.55661 8.41748,30.06454 8.56373,59.5882 -0.0123,-37.41477 -0.7927,-42.17975 -9.95921,-67.22162 -10.0235,-27.38318 -30.8459,-66.38972 -37.70181,-70.62682 -0.49602,-0.30698 -0.79595,-0.34853 -0.91239,-0.16158 z M 250.29622,250.82302 c -0.49716,0 -1.74415,0.50661 -3.93597,1.59232 2.20988,-1.09402 3.46086,-1.59232 3.93597,-1.59232 z m -5.09888,2.20661 c -1.89156,0.96246 -4.31841,2.24886 -8.04488,4.31166 3.45881,-1.91163 6.04989,-3.29923 8.04488,-4.31166 z m 252.24207,4.24012 c -0.35106,23.67725 -1.91418,35.98389 -6.76868,53.09383 -30.15541,106.28586 -116.14674,175.12337 -227.94042,182.47394 -10.076,0.66241 -22.44225,0.74665 -27.48024,0.18464 -20.92909,-2.33482 -52.17068,-10.32771 -73.0361,-17.71775 18.43533,7.98701 37.4199,13.7965 55.84306,16.71594 23.95545,3.79605 68.69536,1.0421 95.82896,-5.89799 52.42498,-13.40816 104.0929,-47.90799 135.80292,-90.68241 19.39211,-26.15852 29.35733,-45.76069 39.74735,-78.20657 6.43339,-20.09171 7.73851,-29.45282 8.00315,-59.96385 z m -265.77346,3.18453 c -9.17654,5.12722 -20.94009,11.79299 -43.74295,24.83833 -30.55411,17.47979 -50.43903,29.02605 -116.027645,67.37073 l -17.151287,10.0248 c 4.9611,-2.53264 11.438617,-6.46313 20.37164,-11.6529 17.540333,-10.19038 44.946522,-26.09158 60.900192,-35.34018 15.95381,-9.24871 41.37302,-24.00339 56.48715,-32.78193 18.64625,-10.82996 30.16242,-17.41079 39.1629,-22.45885 z M 57.403832,393.57956 c -1.050855,-0.34507 4.235008,6.00923 15.887007,19.07152 6.086163,6.82272 12.833644,13.36523 20.037675,19.60829 -2.896343,-2.89866 -6.731983,-6.84463 -10.859712,-11.21159 l -15.153481,-16.0301 16.030134,15.15351 c 13.540489,12.79871 16.818885,16.26852 15.60076,16.79938 2.795065,2.27885 5.651675,4.50693 8.569685,6.68526 -1.61372,-1.32078 -2.90742,-2.47076 -3.28596,-3.08321 -0.10037,-0.16156 -0.0808,-0.24003 0.0416,-0.25041 1.83869,-0.1581 27.24175,15.79825 31.48776,19.94226 3.58067,3.4946 -2.92022,0.32657 -14.62868,-7.04303 6.42276,4.19685 13.05966,8.12515 19.83492,11.78399 -0.0658,-0.0808 -0.21039,-0.19043 -0.26243,-0.27466 -0.81048,-1.31074 6.07379,0.69587 15.24889,4.34155 C 129.67859,457.7938 104.91837,440.16524 79.528522,414.69626 65.8421,400.96716 58.454469,393.92379 57.403602,393.57921 Z m 129.499388,85.85775 c 12.02876,3.34033 24.10384,5.96967 35.9545,7.5201 -11.0563,-1.73796 -23.96621,-4.37884 -35.9545,-7.5201 z m 55.75961,9.54772 9.38072,0.87707 v -0.87707 z"
       style="fill:#b6925c;stroke-width:0.999999"
       id="path10" /><path
       d="M 252.04355,5.7670808 227.11573,7.9379193 C 164.99984,13.356298 108.01798,44.387467 68.531892,92.20348 71.59935,88.62831 74.694382,85.003163 77.769496,81.767175 119.1915,38.177662 169.78029,13.604307 229.9067,7.8722588 Z m 169.46143,66.4344842 10.51977,11.45012 c 9.79409,10.657329 12.38042,12.85135 12.38042,10.51976 0,-0.510072 -5.15247,-5.662807 -11.4501,-11.450126 z m 39.60422,47.327045 c -0.83966,0 2.45973,7.90058 7.32924,17.55676 16.56926,32.85743 22.34459,56.95429 23.97963,99.99758 1.74718,45.99473 -4.43388,79.56222 -20.53863,111.46548 -6.92798,13.72414 -7.29796,18.59506 -18.82705,13.2511 l 12.55336,6.91781 -11.1221,16.62051 c -14.53111,21.72694 -45.76395,52.33344 -68.21753,66.84589 -18.16143,11.73828 -55.51888,27.83844 -77.73542,33.50343 -6.71733,1.71292 -22.17502,4.04003 -34.3503,5.1705 l -22.13685,2.0574 v -3.05333 l -20.61018,-1.92629 c -24.40596,-2.27864 -50.1869,-8.68647 -74.56876,-18.5348 -9.73072,-3.93051 -17.00377,-6.03198 -16.16132,-4.66954 4.61019,7.45961 62.14643,24.67665 94.54678,28.29128 5.03801,0.56201 17.40422,0.47776 27.48024,-0.18465 111.7938,-7.35055 197.78499,-76.18794 227.94042,-182.47394 5.59736,-19.72817 6.93061,-32.06216 6.9297,-64.12054 -0.001,-35.41415 -0.93039,-42.4919 -8.63529,-65.64718 -8.37129,-25.15789 -24.75255,-61.06724 -27.85594,-61.06724 z m -209.06565,5.71312 c 0,57.49749 -0.78981,105.81583 -1.83082,116.96395 -0.14876,1.59255 -0.30179,2.42738 -0.4592,2.42115 -0.31481,-0.0113 -1.60478,-0.60587 -3.66164,-1.66977 -2.05684,-1.06402 -4.8818,-2.59655 -8.2715,-4.48466 -6.7794,-3.7762 -15.81428,-8.97346 -25.47049,-14.67632 C 193.03746,212.3904 147.69491,186.09916 111.58904,165.37077 75.493171,144.64806 45.430899,127.27108 44.749099,126.73261 c -2.191794,3.88608 -4.326083,7.81149 -6.309483,11.84378 -21.314805,43.33285 -25.756753,62.43588 -25.756753,110.71996 0,44.81543 4.483274,66.78785 20.37163,99.85438 l 9.833972,20.47309 29.006901,-16.96048 c 65.588694,-38.34481 85.473494,-49.89094 116.027654,-67.37073 52.20871,-29.86826 60.53727,-34.46959 62.37321,-34.46959 0.96038,0 1.74733,53.78082 1.74733,119.51642 0,-67.41493 0.77401,-122.56974 1.71752,-122.56974 0.94399,0 42.50746,23.63836 92.36411,52.52731 22.11431,12.81396 28.70934,16.51745 46.5995,26.8243 -20.01706,-11.62705 -40.1614,-23.34583 -65.87382,-38.17298 -36.9456,-21.30504 -68.89144,-40.1414 -70.99061,-41.85848 -2.93023,-2.39666 -3.81381,-30.6246 -3.81671,-121.84812 z m -184.728229,279.77595 15.153481,16.0301 c 8.333558,8.81653 15.546595,16.03023 16.030133,16.03023 2.278395,0 -0.258019,-2.82736 -15.15348,-16.90682 z m 36.956379,35.30453 c -0.12256,0.0112 -0.14194,0.0924 -0.0416,0.25041 1.08976,1.76323 8.2674,7.19639 15.95262,12.07031 12.38025,7.85175 19.26436,11.22047 15.5769,7.62154 -4.246,-4.14401 -29.64908,-20.10061 -31.48776,-19.94226 z"
       style="fill:#a65b25;stroke-width:0.999999"
       id="path9" /><path
       d="m 111.58902,165.37077 c 36.10592,20.72839 81.44841,47.01963 100.76085,58.42531 -19.31244,-11.40568 -64.65493,-37.69692 -100.76085,-58.42531 z m 142.17205,82.39893 c -0.94354,0 -1.71752,55.15481 -1.71752,122.56974 v 122.57563 l 22.13685,-2.0574 c 12.17529,-1.13094 27.63297,-3.45758 34.3503,-5.1705 22.21656,-5.66499 59.57398,-21.76515 77.73542,-33.50343 22.4536,-14.51245 53.68642,-45.11883 68.21753,-66.84589 l 11.1221,-16.62051 -14.41997,-7.9495 c -7.92872,-4.37192 -55.20403,-31.58188 -105.0606,-60.47083 -49.85669,-28.88907 -91.42012,-52.52731 -92.36411,-52.52731 z"
       style="fill:#20cc2f;stroke-width:0.999999"
       id="path8" /><path
       d="M 252.04355,5.7670808 229.9067,7.8722588 C 169.78018,13.604307 119.19159,38.177539 77.769496,81.767175 61.069271,99.341362 42.342945,124.82154 44.731201,126.72073 c 0.665642,0.52969 30.75187,17.92155 66.857819,38.65004 36.10598,20.72849 81.44838,47.01963 100.76085,58.42531 19.31249,11.40582 36.14416,20.78459 37.40365,20.83075 1.25951,0.0461 2.29003,-53.67361 2.29003,-119.3851 z"
       style="fill:#d61515;stroke-width:0.999999"
       id="path7" /></g></svg>
